<?xml version="1.0" encoding="UTF-8" ?>
<!DOCTYPE svg PUBLIC "-//W3C//DTD SVG 1.1//EN" "http://www.w3.org/Graphics/SVG/1.1/DTD/svg11.dtd">
<svg width="486pt" height="172pt" viewBox="0 0 486 172" version="1.1" xmlns="http://www.w3.org/2000/svg">
<g id="#fefefeff">
</g>
<g id="#ffffff">
<path fill="#ffffff" opacity="1.00" d=" M 86.68 27.60 C 96.33 21.89 108.19 19.92 119.08 22.76 C 122.51 23.65 125.43 25.75 127.90 28.23 C 127.25 32.17 126.04 36.18 123.13 39.07 C 119.84 36.86 116.56 34.40 112.63 33.51 C 106.88 32.03 100.86 32.69 95.19 34.17 C 97.64 37.38 100.53 40.48 101.53 44.50 C 103.60 53.66 99.97 63.84 92.56 69.62 C 85.15 74.87 73.16 71.88 69.56 63.39 C 66.06 56.08 68.52 47.75 71.97 40.93 C 65.17 43.05 60.62 49.47 59.17 56.23 C 57.38 62.51 58.50 69.10 59.65 75.38 C 60.09 76.77 60.27 79.02 62.05 79.28 C 67.04 79.13 72.07 78.12 77.04 79.12 C 81.59 80.00 86.62 81.63 89.17 85.83 C 92.10 90.52 90.40 96.88 86.47 100.45 C 81.86 104.65 75.16 105.79 69.15 104.84 C 63.71 104.05 58.85 101.38 54.00 98.97 C 49.10 104.89 46.43 113.36 49.17 120.82 C 51.29 127.30 58.29 131.26 64.95 130.72 C 76.58 130.51 86.55 123.31 94.16 115.09 C 96.78 116.82 99.17 118.86 101.37 121.10 C 97.93 127.17 92.56 131.82 87.57 136.57 C 74.17 147.63 55.09 151.87 38.41 146.66 C 30.26 144.32 22.30 139.20 18.81 131.19 C 15.24 122.96 14.63 113.01 18.86 104.89 C 23.06 96.67 30.78 91.01 38.74 86.74 C 35.17 81.48 31.64 76.01 30.36 69.68 C 28.90 60.35 30.17 49.93 36.68 42.65 C 46.08 31.88 61.01 27.16 75.00 27.67 C 78.89 27.61 83.11 30.06 86.68 27.60 M 79.23 57.70 C 79.78 60.37 83.21 62.76 85.59 60.62 C 90.74 55.63 89.96 45.78 83.92 41.78 C 79.95 45.91 78.15 52.08 79.23 57.70 M 66.71 89.00 C 69.40 93.34 74.76 94.74 79.51 93.41 C 79.84 91.82 79.84 90.22 79.48 88.64 C 75.34 87.05 70.78 87.40 66.71 89.00 Z" />
<path fill="#ffffff" opacity="1.00" d=" M 196.30 28.10 C 203.68 25.86 211.36 24.84 219.00 23.92 C 221.60 23.59 224.25 23.52 226.86 23.89 C 229.34 31.53 227.39 39.58 226.35 47.28 C 224.76 58.35 221.74 69.15 219.83 80.15 C 228.73 76.81 237.73 70.67 247.68 73.27 C 254.56 74.51 258.75 81.53 258.50 88.18 C 258.11 101.46 252.70 113.92 251.13 127.02 C 250.79 128.80 251.34 130.51 252.17 132.05 C 255.24 131.55 258.41 129.75 261.47 130.32 C 262.76 132.70 263.38 135.35 264.10 137.94 C 258.81 141.89 252.59 144.34 246.42 146.53 C 240.38 148.70 233.55 149.86 227.33 147.79 C 221.95 145.60 220.34 139.22 220.01 133.97 C 220.49 122.82 223.95 112.10 226.35 101.27 C 227.08 98.23 227.10 95.10 226.82 92.01 C 222.40 91.28 215.93 93.04 215.29 98.21 C 212.10 113.19 208.24 128.26 208.63 143.70 C 198.37 146.28 187.79 148.37 177.17 148.02 C 176.24 139.52 178.26 131.15 179.83 122.86 C 185.13 95.49 193.66 68.73 196.74 40.94 C 197.29 36.67 196.94 32.34 196.30 28.10 Z" />
<path fill="#ffffff" opacity="1.00" d=" M 297.75 73.94 C 304.83 72.16 312.19 74.17 319.30 72.62 C 325.07 71.55 332.02 73.62 334.90 79.05 C 337.76 83.84 337.46 89.53 338.89 94.72 C 341.86 94.15 344.98 94.09 347.82 92.94 C 350.56 89.97 352.58 86.34 355.74 83.74 C 366.41 74.06 381.85 70.82 395.81 73.38 C 401.76 74.78 407.99 77.23 411.63 82.42 C 416.23 88.57 416.20 97.58 411.90 103.87 C 408.67 108.36 404.20 111.93 399.19 114.25 C 391.24 117.72 382.85 120.23 374.18 120.98 C 375.10 125.38 377.23 130.63 382.16 131.63 C 390.30 133.16 397.92 129.04 404.79 125.23 C 406.75 127.35 408.43 129.71 410.00 132.13 C 401.98 141.02 390.63 146.87 378.76 148.49 C 371.33 149.17 363.33 149.15 356.69 145.27 C 350.01 141.92 345.53 135.23 343.83 128.08 C 342.02 120.67 343.06 113.01 343.14 105.49 C 341.28 105.70 339.44 106.05 337.64 106.56 C 334.64 119.36 328.88 132.04 318.63 140.65 C 311.17 147.15 300.78 149.58 291.07 148.58 C 283.28 147.55 275.60 143.19 271.95 136.03 C 267.90 129.47 267.61 121.52 267.80 114.03 C 267.97 103.45 272.23 93.11 279.12 85.13 C 284.00 79.60 290.69 75.90 297.75 73.94 M 379.03 89.03 C 375.19 95.25 373.49 102.78 374.05 110.06 C 378.66 108.38 381.95 104.47 384.33 100.34 C 386.12 97.15 388.11 93.81 388.10 90.04 C 388.01 88.30 388.53 86.01 386.63 85.07 C 383.51 83.81 380.66 86.69 379.03 89.03 M 307.30 86.07 C 304.31 89.31 303.20 93.75 301.91 97.85 C 300.06 105.08 298.70 112.56 299.10 120.04 C 299.70 124.19 300.24 129.44 304.45 131.58 C 307.81 132.68 311.63 131.55 314.21 129.22 C 320.43 123.85 324.78 116.25 326.04 108.11 C 321.65 107.35 316.59 107.19 313.39 103.62 C 308.92 98.93 308.70 91.97 309.69 85.92 C 309.09 85.96 307.90 86.03 307.30 86.07 Z" />
<path fill="#ffffff" opacity="1.00" d=" M 119.55 82.54 C 128.85 74.33 141.88 71.63 153.97 72.80 C 160.34 73.59 167.08 75.53 171.43 80.54 C 177.33 86.98 175.94 97.47 170.84 103.98 C 163.16 103.61 154.98 101.70 148.89 96.82 C 148.66 92.40 150.31 88.15 150.89 83.81 C 144.79 82.75 141.45 88.86 139.73 93.69 C 136.17 104.06 134.47 115.87 138.80 126.28 C 140.62 130.97 146.26 133.03 150.95 131.98 C 156.48 131.39 160.78 127.66 165.59 125.28 C 167.17 127.52 168.94 129.64 170.14 132.13 C 170.29 133.48 168.83 134.23 168.09 135.16 C 158.32 143.97 145.19 149.50 131.91 148.77 C 123.29 148.60 114.67 144.25 109.89 136.98 C 106.02 130.74 104.49 123.27 104.95 115.98 C 104.85 103.46 109.87 90.70 119.55 82.54 Z" />
<path fill="#ffffff" opacity="1.00" d=" M 436.31 76.29 C 444.16 72.48 453.28 71.82 461.82 73.18 C 468.14 74.29 475.21 77.96 476.18 84.99 C 478.04 93.14 472.14 100.00 467.64 106.05 C 471.16 111.29 475.36 116.53 475.93 123.07 C 476.35 130.86 471.75 138.19 465.33 142.34 C 455.84 149.23 443.36 149.94 432.18 147.86 C 425.95 146.39 419.31 144.11 415.17 138.95 C 413.31 136.72 414.26 133.73 415.56 131.49 C 418.73 125.96 423.32 120.53 429.84 119.10 C 435.84 122.94 439.60 129.12 442.58 135.42 C 443.24 138.54 448.39 137.82 448.49 134.81 C 448.50 132.32 447.22 130.07 445.95 128.01 C 440.04 119.03 431.68 111.76 426.86 102.05 C 424.67 97.85 424.47 92.88 425.40 88.31 C 426.75 82.77 431.47 78.85 436.31 76.29 M 453.01 87.88 C 454.38 91.86 457.51 94.91 460.27 97.98 C 463.73 95.85 466.01 91.99 466.65 88.03 C 466.19 80.95 453.22 80.35 453.01 87.88 Z" />
</g>
</svg>
